<svg width="826" height="104" viewBox="0 0 826 104" fill="none" xmlns="http://www.w3.org/2000/svg">
<path d="M777.15 85.944V12.472C777.15 11.8746 782.014 9.78398 791.742 6.19998C801.47 2.53065 807.059 0.695984 808.51 0.695984C809.961 0.695984 812.137 2.44532 815.038 5.94398C818.025 9.44265 819.518 12.6 819.518 15.416V48.952H825.79V52.024L819.518 55.224V80.056C819.518 84.7493 821.566 87.5227 825.662 88.376V91.192L811.71 99C809.833 98.232 808.083 96.9947 806.462 95.288C804.841 93.496 804.03 91.832 804.03 90.296V55.224H792.51V79.288C792.51 82.4453 792.851 84.7066 793.534 86.072C794.217 87.4373 795.625 88.12 797.758 88.12V92.088L771.518 103.096L769.47 99C771.347 99 773.139 97.8906 774.846 95.672C776.382 93.5387 777.15 90.296 777.15 85.944ZM797.502 12.6C795.795 12.6 794.131 13.24 792.51 14.52V52.28L800.062 48.952H804.03V22.072C804.03 15.7573 801.854 12.6 797.502 12.6Z" fill="#333333"/>
<path d="M722.15 84.408V21.304C722.15 18.488 721.553 16.056 720.358 14.008C719.163 11.96 717.67 10.936 715.878 10.936V8.12001C716.475 8.03468 721.126 5.43201 729.83 0.312012C730.427 0.482676 731.153 0.738675 732.006 1.08001C732.859 1.33601 733.969 2.14668 735.334 3.51201C736.785 4.87734 737.51 6.45601 737.51 8.24801C738.022 7.99201 739.473 7.18135 741.862 5.81601C748.177 2.23201 751.931 0.44001 753.126 0.44001C755.857 0.44001 758.417 2.23201 760.806 5.81601C763.195 9.40001 764.39 12.6853 764.39 15.672V80.056C764.39 84.7494 766.481 87.5227 770.662 88.376V91.192L756.71 99C754.833 98.232 753.083 96.9947 751.462 95.288C749.841 93.496 749.03 91.832 749.03 90.296V27.576C749.03 22.2 748.219 18.5307 746.598 16.568C745.062 14.6053 742.033 13.624 737.51 13.624V79.288C737.51 82.7013 737.937 85.048 738.79 86.328C739.643 87.5227 740.966 88.12 742.758 88.12V92.088L716.518 103.096L714.47 99C716.177 99 717.841 97.976 719.462 95.928C721.254 93.5387 722.15 89.6987 722.15 84.408Z" fill="#333333"/>
<path d="M667.025 85.944V12.472C667.025 11.8746 671.889 9.78398 681.617 6.19998C691.345 2.53065 696.934 0.695984 698.385 0.695984C699.836 0.695984 702.012 2.44532 704.913 5.94398C707.9 9.44265 709.393 12.6 709.393 15.416V48.952H715.665V52.024L709.393 55.224V80.056C709.393 84.7493 711.441 87.5227 715.537 88.376V91.192L701.585 99C699.708 98.232 697.958 96.9947 696.337 95.288C694.716 93.496 693.905 91.832 693.905 90.296V55.224H682.385V79.288C682.385 82.4453 682.726 84.7066 683.409 86.072C684.092 87.4373 685.5 88.12 687.633 88.12V92.088L661.393 103.096L659.345 99C661.222 99 663.014 97.8906 664.721 95.672C666.257 93.5387 667.025 90.296 667.025 85.944ZM687.377 12.6C685.67 12.6 684.006 13.24 682.385 14.52V52.28L689.937 48.952H693.905V22.072C693.905 15.7573 691.729 12.6 687.377 12.6Z" fill="#333333"/>
<path d="M628.51 9.39998C638.153 3.68265 643.315 0.823982 643.998 0.823982C644.766 0.823982 646.003 1.50665 647.71 2.87198C649.417 4.15198 651.123 5.98665 652.83 8.37598C654.537 10.68 655.39 12.9413 655.39 15.16V36.664C655.39 38.6266 651.891 41.1013 644.894 44.088C646.686 44.6 648.905 46.52 651.55 49.848C654.195 53.0906 655.518 56.0346 655.518 58.68V87.096C655.518 87.7787 650.825 89.9547 641.438 93.624C632.137 97.208 626.419 99 624.286 99C622.238 99 619.849 97.1653 617.118 93.496C614.473 89.8267 613.15 85.432 613.15 80.312V18.872C613.15 14.264 611.401 11.576 607.902 10.808V7.99198L620.83 0.695984C622.707 1.46398 624.457 2.74398 626.078 4.53598C627.699 6.24265 628.51 7.86398 628.51 9.39998ZM635.038 87.224C636.659 87.224 638.323 86.5413 640.03 85.176V65.336C640.03 59.0213 637.854 55.864 633.502 55.864C631.795 55.864 630.131 56.504 628.51 57.784V77.752C628.51 84.0667 630.686 87.224 635.038 87.224ZM640.03 22.2C640.03 19.896 639.518 17.9333 638.494 16.312C637.555 14.6053 636.147 13.752 634.27 13.752C632.478 13.752 630.558 15.032 628.51 17.592V44.088C636.19 41.9546 640.03 37.3466 640.03 30.264V22.2Z" fill="#333333"/>
<path d="M578.252 12.984C576.716 12.984 575.052 13.624 573.26 14.904V56.504C575.479 56.504 577.953 55.8213 580.684 54.456C583.415 53.0053 584.78 51.512 584.78 49.976V22.456C584.78 16.1413 582.604 12.984 578.252 12.984ZM557.9 85.944V19.64C557.9 14.4346 556.151 11.4906 552.652 10.808V7.99198L565.58 0.695984C567.287 1.37865 568.993 2.61598 570.7 4.40798C572.407 6.19998 573.26 7.82131 573.26 9.27198C582.647 3.55465 588.023 0.695984 589.388 0.695984C590.753 0.695984 592.887 2.44532 595.788 5.94398C598.775 9.44265 600.268 12.6 600.268 15.416V51.384C600.268 52.0667 595.617 54.2427 586.316 57.912C590.241 71.1387 594.849 80.056 600.14 84.664C602.529 86.6267 604.961 87.608 607.436 87.608V91.448C599.5 96.4827 594.465 99 592.332 99C589.516 99 585.932 93.7093 581.58 83.128C577.313 72.5466 575.009 65.5493 574.668 62.136L573.26 62.52V79.288C573.26 82.4453 573.601 84.7066 574.284 86.072C574.967 87.4373 576.375 88.12 578.508 88.12V92.088L552.268 103.096L550.22 99C552.097 99 553.889 97.8906 555.596 95.672C557.132 93.5387 557.9 90.296 557.9 85.944Z" fill="#333333"/>
<path d="M529.78 85.688V24.12C529.78 20.9627 529.439 18.7013 528.756 17.336C528.073 15.9707 526.665 15.288 524.532 15.288V11.32L550.772 0.312012L552.82 4.40801C550.943 4.40801 549.151 5.51734 547.444 7.73601C545.908 9.86934 545.14 13.112 545.14 17.464V78.008C545.14 80.824 545.737 83.256 546.932 85.304C548.127 87.352 549.62 88.376 551.412 88.376V91.192C550.815 91.2774 546.164 93.88 537.46 99C536.863 98.8293 536.137 98.616 535.284 98.36C534.431 98.0187 533.279 97.1654 531.828 95.8C530.463 94.4347 529.78 92.856 529.78 91.064C529.268 91.32 527.817 92.1307 525.428 93.496C519.113 97.08 515.359 98.872 514.164 98.872C511.433 98.872 508.873 97.1227 506.484 93.624C504.095 90.04 502.9 86.712 502.9 83.64V19.256C502.9 14.5627 500.809 11.7893 496.628 10.936V8.12001L510.58 0.312012C512.457 1.08001 514.207 2.36001 515.828 4.15201C517.449 5.85868 518.26 7.48001 518.26 9.01601V71.736C518.26 77.112 519.028 80.7813 520.564 82.744C522.185 84.7067 525.257 85.688 529.78 85.688Z" fill="#333333"/>
<path d="M476.16 19V36.92H494.208V39.992L486.528 47.032H476.16V76.94L469.12 84.62H466.048V47.032H448V44.216L455.68 36.92H466.048V26.68L473.344 19H476.16Z" fill="#F64D45"/>
<path d="M393.9 85.944V12.472C393.9 11.8746 398.764 9.78398 408.492 6.19998C418.22 2.53065 423.809 0.695984 425.26 0.695984C426.711 0.695984 428.887 2.44532 431.788 5.94398C434.775 9.44265 436.268 12.6 436.268 15.416V48.952H442.54V52.024L436.268 55.224V80.056C436.268 84.7493 438.316 87.5227 442.412 88.376V91.192L428.46 99C426.583 98.232 424.833 96.9947 423.212 95.288C421.591 93.496 420.78 91.832 420.78 90.296V55.224H409.26V79.288C409.26 82.4453 409.601 84.7066 410.284 86.072C410.967 87.4373 412.375 88.12 414.508 88.12V92.088L388.268 103.096L386.22 99C388.097 99 389.889 97.8906 391.596 95.672C393.132 93.5387 393.9 90.296 393.9 85.944ZM414.252 12.6C412.545 12.6 410.881 13.24 409.26 14.52V52.28L416.812 48.952H420.78V22.072C420.78 15.7573 418.604 12.6 414.252 12.6Z" fill="#333333"/>
<path d="M365.775 82.616V24.12C365.775 20.9627 365.434 18.7013 364.751 17.336C364.068 15.9707 362.66 15.288 360.527 15.288V11.32L386.767 0.312012L388.815 4.40801C386.938 4.40801 385.146 5.51734 383.439 7.73601C381.903 9.86934 381.135 13.112 381.135 17.464V77.624C381.135 79.928 381.519 81.592 382.287 82.616C383.055 83.5547 384.378 84.024 386.255 84.024V87.608C368.932 95.2027 360.228 99 360.143 99L358.095 94.904C358.778 94.904 359.588 94.6054 360.527 94.008C361.551 93.4107 362.404 92.728 363.087 91.96C364.879 89.912 365.775 86.7973 365.775 82.616Z" fill="#333333"/>
<path d="M310.775 84.408V21.304C310.775 18.488 310.178 16.056 308.983 14.008C307.788 11.96 306.295 10.936 304.503 10.936V8.12001C305.1 8.03468 309.751 5.43201 318.455 0.312012C319.052 0.482676 319.778 0.738675 320.631 1.08001C321.484 1.33601 322.594 2.14668 323.959 3.51201C325.41 4.87734 326.135 6.45601 326.135 8.24801C326.647 7.99201 328.098 7.18135 330.487 5.81601C336.802 2.23201 340.556 0.44001 341.751 0.44001C344.482 0.44001 347.042 2.23201 349.431 5.81601C351.82 9.40001 353.015 12.6853 353.015 15.672V80.056C353.015 84.7494 355.106 87.5227 359.287 88.376V91.192L345.335 99C343.458 98.232 341.708 96.9947 340.087 95.288C338.466 93.496 337.655 91.832 337.655 90.296V27.576C337.655 22.2 336.844 18.5307 335.223 16.568C333.687 14.6053 330.658 13.624 326.135 13.624V79.288C326.135 82.7013 326.562 85.048 327.415 86.328C328.268 87.5227 329.591 88.12 331.383 88.12V92.088L305.143 103.096L303.095 99C304.802 99 306.466 97.976 308.087 95.928C309.879 93.5387 310.775 89.6987 310.775 84.408Z" fill="#333333"/>
<path d="M255.65 80.312V12.216C255.65 11.6187 260.514 9.528 270.242 5.944C279.97 2.27467 285.559 0.440002 287.01 0.440002C288.461 0.440002 290.637 2.18934 293.538 5.688C296.525 9.18667 298.018 12.344 298.018 15.16V87.096C298.018 87.7787 293.325 89.9547 283.938 93.624C274.637 97.208 268.919 99 266.786 99C264.738 99 262.349 97.1653 259.618 93.496C256.973 89.8267 255.65 85.432 255.65 80.312ZM277.538 87.224C279.159 87.224 280.823 86.5413 282.53 85.176V21.816C282.53 15.5013 280.354 12.344 276.002 12.344C274.295 12.344 272.631 12.984 271.01 14.264V77.752C271.01 84.0667 273.186 87.224 277.538 87.224Z" fill="#333333"/>
<path d="M173.775 85.944V21.304C173.775 18.488 173.178 16.056 171.983 14.008C170.788 11.96 169.295 10.936 167.503 10.936V8.12001C168.1 8.03468 172.751 5.43201 181.455 0.312012C182.052 0.482676 182.778 0.738675 183.631 1.08001C184.484 1.33601 185.594 2.14668 186.959 3.51201C188.41 4.87734 189.135 6.45601 189.135 8.24801C189.647 7.99201 191.098 7.18135 193.487 5.81601C199.802 2.23201 203.684 0.44001 205.135 0.44001C206.671 0.44001 208.335 1.20801 210.127 2.74401C212.004 4.28001 213.412 6.11468 214.351 8.24801C214.522 8.16268 216.271 7.26668 219.599 5.56001C226.255 2.14668 230.266 0.44001 231.631 0.44001C234.362 0.44001 236.922 2.23201 239.311 5.81601C241.7 9.40001 242.895 12.6853 242.895 15.672V80.056C242.895 84.7494 244.986 87.5227 249.167 88.376V91.192L235.215 99C233.338 98.232 231.588 96.9947 229.967 95.288C228.346 93.496 227.535 91.832 227.535 90.296V27.576C227.535 22.456 226.682 18.9147 224.975 16.952C223.354 14.904 220.367 13.7947 216.015 13.624V80.056C216.015 84.7494 218.106 87.5227 222.287 88.376V91.192L208.335 99C206.458 98.232 204.708 96.9947 203.087 95.288C201.466 93.496 200.655 91.832 200.655 90.296V27.576C200.655 22.2 199.844 18.5307 198.223 16.568C196.687 14.6053 193.658 13.624 189.135 13.624V79.288C189.135 82.4453 189.476 84.7067 190.159 86.072C190.842 87.4373 192.25 88.12 194.383 88.12V92.088L168.143 103.096L166.095 99C167.972 99 169.764 97.8907 171.471 95.672C173.007 93.5387 173.775 90.296 173.775 85.944Z" fill="#333333"/>
<path d="M138.877 12.984C137.341 12.984 135.677 13.624 133.885 14.904V56.504C136.104 56.504 138.578 55.8213 141.309 54.456C144.04 53.0053 145.405 51.512 145.405 49.976V22.456C145.405 16.1413 143.229 12.984 138.877 12.984ZM118.525 85.944V19.64C118.525 14.4346 116.776 11.4906 113.277 10.808V7.99198L126.205 0.695984C127.912 1.37865 129.618 2.61598 131.325 4.40798C133.032 6.19998 133.885 7.82131 133.885 9.27198C143.272 3.55465 148.648 0.695984 150.013 0.695984C151.378 0.695984 153.512 2.44532 156.413 5.94398C159.4 9.44265 160.893 12.6 160.893 15.416V51.384C160.893 52.0667 156.242 54.2427 146.941 57.912C150.866 71.1387 155.474 80.056 160.765 84.664C163.154 86.6267 165.586 87.608 168.061 87.608V91.448C160.125 96.4827 155.09 99 152.957 99C150.141 99 146.557 93.7093 142.205 83.128C137.938 72.5466 135.634 65.5493 135.293 62.136L133.885 62.52V79.288C133.885 82.4453 134.226 84.7066 134.909 86.072C135.592 87.4373 137 88.12 139.133 88.12V92.088L112.893 103.096L110.845 99C112.722 99 114.514 97.8906 116.221 95.672C117.757 93.5387 118.525 90.296 118.525 85.944Z" fill="#333333"/>
<path d="M63.4 85.944V12.472C63.4 11.8746 68.264 9.78398 77.992 6.19998C87.72 2.53065 93.3093 0.695984 94.76 0.695984C96.2106 0.695984 98.3866 2.44532 101.288 5.94398C104.275 9.44265 105.768 12.6 105.768 15.416V48.952H112.04V52.024L105.768 55.224V80.056C105.768 84.7493 107.816 87.5227 111.912 88.376V91.192L97.96 99C96.0826 98.232 94.3333 96.9947 92.712 95.288C91.0906 93.496 90.28 91.832 90.28 90.296V55.224H78.76V79.288C78.76 82.4453 79.1013 84.7066 79.784 86.072C80.4666 87.4373 81.8746 88.12 84.008 88.12V92.088L57.768 103.096L55.72 99C57.5973 99 59.3893 97.8906 61.096 95.672C62.632 93.5387 63.4 90.296 63.4 85.944ZM83.752 12.6C82.0453 12.6 80.3813 13.24 78.76 14.52V52.28L86.312 48.952H90.28V22.072C90.28 15.7573 88.104 12.6 83.752 12.6Z" fill="#333333"/>
<path d="M35.28 46.648V24.12C35.28 20.9627 34.9386 18.7013 34.256 17.336C33.5733 15.9707 32.1653 15.288 30.032 15.288V11.32L56.272 0.312012L58.32 4.40801C56.4426 4.40801 54.6506 5.51734 52.944 7.73601C51.408 9.86934 50.64 13.112 50.64 17.464V46.648H57.04V49.72L50.64 52.92V80.056C50.64 85.2613 52.3893 88.2054 55.888 88.888V91.704L42.96 99C41.0826 98.232 39.3333 96.9947 37.712 95.288C36.0906 93.496 35.28 91.832 35.28 90.296V52.92H23.76V79.288C23.76 82.4453 24.1013 84.7067 24.784 86.072C25.4666 87.4373 26.8746 88.12 29.008 88.12V92.088L2.76797 103.096L0.719971 99C2.5973 99 4.3893 97.8907 6.09597 95.672C7.63197 93.5387 8.39997 90.296 8.39997 85.944V19.384C8.39997 14.1787 6.65064 11.2347 3.15197 10.552V7.73601L16.08 0.44001C17.9573 1.20801 19.7066 2.48801 21.328 4.28001C22.9493 5.98668 23.76 7.60801 23.76 9.14401V50.104L30.16 46.648H35.28Z" fill="#333333"/>
</svg>
