<svg width="410" height="231" viewBox="0 0 410 231" fill="none" xmlns="http://www.w3.org/2000/svg">
<path d="M364.863 79.5371V11.2945C364.863 10.7397 369.377 8.79785 378.404 5.46894C387.432 2.06077 392.618 0.356689 393.965 0.356689C395.311 0.356689 397.33 1.98151 400.022 5.23116C402.794 8.4808 404.18 11.4134 404.18 14.029V45.1781H410V48.0314L404.18 51.0036V74.0682C404.18 78.4275 406.08 81.0034 409.881 81.796V84.4116L396.934 91.6639C395.192 90.9505 393.569 89.8013 392.064 88.2161C390.559 86.5516 389.807 85.0061 389.807 83.5794V51.0036H379.117V73.3549C379.117 76.2875 379.434 78.3879 380.067 79.656C380.701 80.9242 382.007 81.5583 383.987 81.5583V85.2438L359.637 95.4683L357.736 91.6639C359.478 91.6639 361.141 90.6335 362.725 88.5727C364.15 86.5912 364.863 83.5794 364.863 79.5371ZM383.749 11.4134C382.166 11.4134 380.621 12.0079 379.117 13.1968V48.2692L386.125 45.1781H389.807V20.2112C389.807 14.346 387.788 11.4134 383.749 11.4134Z" fill="#333333"/>
<path d="M338.764 76.446V22.1135C338.764 19.1808 338.447 17.0805 337.813 15.8123C337.18 14.5442 335.873 13.9101 333.894 13.9101V10.2245L358.244 0L360.144 3.80447C358.402 3.80447 356.739 4.83484 355.155 6.89559C353.73 8.87709 353.017 11.889 353.017 15.9312V71.8093C353.017 73.9493 353.374 75.4949 354.086 76.446C354.799 77.3178 356.027 77.7538 357.769 77.7538V81.0827C341.694 88.1368 333.616 91.6639 333.537 91.6639L331.637 87.8594C332.27 87.8594 333.023 87.582 333.894 87.0272C334.844 86.4724 335.636 85.8383 336.269 85.1249C337.932 83.2227 338.764 80.3297 338.764 76.446Z" fill="#333333"/>
<path d="M287.725 78.1104V19.4979C287.725 16.8823 287.17 14.6234 286.062 12.7212C284.953 10.819 283.567 9.86783 281.904 9.86783V7.25226C282.459 7.173 286.775 4.75558 294.852 0C295.406 0.158517 296.079 0.396296 296.871 0.713335C297.663 0.951116 298.692 1.70408 299.959 2.97224C301.305 4.24039 301.979 5.7067 301.979 7.37115C302.454 7.13337 303.8 6.38041 306.017 5.11225C311.877 1.78334 315.361 0.118888 316.47 0.118888C319.004 0.118888 321.38 1.78334 323.597 5.11225C325.814 8.44116 326.923 11.4927 326.923 14.2667V74.0682C326.923 78.4275 328.863 81.0034 332.743 81.796V84.4116L319.796 91.6639C318.054 90.9505 316.43 89.8013 314.926 88.2161C313.421 86.5516 312.669 85.006 312.669 83.5794V25.3235C312.669 20.3301 311.917 16.9219 310.412 15.099C308.987 13.276 306.176 12.3645 301.979 12.3645V73.3549C301.979 76.5252 302.374 78.7049 303.166 79.8938C303.958 81.0034 305.186 81.5583 306.849 81.5583V85.2438L282.498 95.4683L280.598 91.6639C282.182 91.6639 283.726 90.7127 285.23 88.8105C286.893 86.5912 287.725 83.0245 287.725 78.1104Z" fill="#333333"/>
<path d="M236.57 74.306V11.0567C236.57 10.5019 241.084 8.56005 250.111 5.23115C259.138 1.82298 264.325 0.118896 265.671 0.118896C267.018 0.118896 269.037 1.74372 271.729 4.99337C274.501 8.24302 275.887 11.1756 275.887 13.7912V80.6071C275.887 81.2412 271.531 83.2623 262.821 86.6705C254.189 89.9994 248.884 91.6639 246.904 91.6639C245.003 91.6639 242.786 89.9598 240.252 86.5516C237.797 83.1434 236.57 79.0616 236.57 74.306ZM256.882 80.726C258.386 80.726 259.93 80.0919 261.514 78.8238V19.9735C261.514 14.1082 259.495 11.1756 255.456 11.1756C253.872 11.1756 252.328 11.7701 250.824 12.959V71.9282C250.824 77.7934 252.843 80.726 256.882 80.726Z" fill="#333333"/>
<path d="M160.591 79.5371V19.4979C160.591 16.8823 160.037 14.6234 158.929 12.7212C157.82 10.819 156.434 9.86783 154.771 9.86783V7.25226C155.326 7.173 159.641 4.75558 167.718 0C168.273 0.158517 168.946 0.396296 169.738 0.713335C170.53 0.951116 171.559 1.70408 172.826 2.97224C174.172 4.24039 174.845 5.7067 174.845 7.37115C175.32 7.13337 176.667 6.38041 178.884 5.11225C184.744 1.78334 188.347 0.118888 189.693 0.118888C191.118 0.118888 192.662 0.832226 194.325 2.2589C196.068 3.68558 197.374 5.38966 198.245 7.37115C198.404 7.29189 200.027 6.45967 203.115 4.87447C209.292 1.70408 213.014 0.118888 214.281 0.118888C216.815 0.118888 219.19 1.78334 221.408 5.11225C223.625 8.44116 224.733 11.4927 224.733 14.2667V74.0682C224.733 78.4275 226.674 81.0034 230.554 81.796V84.4116L217.607 91.6639C215.864 90.9505 214.241 89.8013 212.737 88.2161C211.232 86.5516 210.48 85.006 210.48 83.5794V25.3235C210.48 20.5679 209.688 17.2786 208.104 15.4556C206.599 13.5534 203.828 12.523 199.789 12.3645V74.0682C199.789 78.4275 201.729 81.0034 205.61 81.796V84.4116L192.662 91.6639C190.92 90.9505 189.297 89.8013 187.792 88.2161C186.288 86.5516 185.536 85.006 185.536 83.5794V25.3235C185.536 20.3301 184.783 16.9219 183.279 15.099C181.853 13.276 179.042 12.3645 174.845 12.3645V73.3549C174.845 76.2875 175.162 78.3879 175.795 79.656C176.429 80.9242 177.736 81.5583 179.715 81.5583V85.2438L155.365 95.4683L153.465 91.6639C155.207 91.6639 156.87 90.6335 158.453 88.5727C159.879 86.5912 160.591 83.5794 160.591 79.5371Z" fill="#333333"/>
<path d="M128.207 11.7701C126.782 11.7701 125.237 12.3645 123.574 13.5534V52.1925C125.633 52.1925 127.93 51.5585 130.464 50.2903C132.998 48.9429 134.265 47.5558 134.265 46.1292V20.5679C134.265 14.7027 132.246 11.7701 128.207 11.7701ZM109.321 79.5371V17.9523C109.321 13.1175 107.697 10.383 104.451 9.74896V7.13339L116.448 0.356689C118.031 0.990764 119.615 2.14003 121.199 3.80448C122.783 5.46894 123.574 6.97487 123.574 8.32229C132.285 3.01189 137.274 0.356689 138.541 0.356689C139.808 0.356689 141.788 1.98151 144.48 5.23116C147.252 8.4808 148.637 11.4134 148.637 14.029V47.437C148.637 48.071 144.322 50.0922 135.69 53.5003C139.333 65.7856 143.609 74.0682 148.519 78.3482C150.736 80.1712 152.993 81.0827 155.289 81.0827V84.6494C147.925 89.3257 143.253 91.6639 141.273 91.6639C138.66 91.6639 135.334 86.7498 131.295 76.9216C127.336 67.0934 125.198 60.5941 124.881 57.4237L123.574 57.7803V73.3549C123.574 76.2875 123.891 78.3879 124.525 79.656C125.158 80.9242 126.465 81.5583 128.445 81.5583V85.2438L104.094 95.4683L102.194 91.6639C103.936 91.6639 105.599 90.6335 107.183 88.5727C108.608 86.5912 109.321 83.5794 109.321 79.5371Z" fill="#333333"/>
<path d="M58.1659 79.5371V11.2945C58.1659 10.7397 62.6796 8.79785 71.707 5.46894C80.7344 2.06077 85.9212 0.356689 87.2674 0.356689C88.6136 0.356689 90.6329 1.98151 93.3252 5.23116C96.0968 8.4808 97.4826 11.4134 97.4826 14.029V45.1781H103.303V48.0314L97.4826 51.0036V74.0682C97.4826 78.4275 99.3831 81.0034 103.184 81.796V84.4116L90.2369 91.6639C88.4948 90.9505 86.8715 89.8013 85.3669 88.2161C83.8623 86.5516 83.11 85.0061 83.11 83.5794V51.0036H72.4197V73.3549C72.4197 76.2875 72.7365 78.3879 73.37 79.656C74.0035 80.9242 75.3101 81.5583 77.2898 81.5583V85.2438L52.9396 95.4683L51.0391 91.6639C52.7812 91.6639 54.4441 90.6335 56.0279 88.5727C57.4533 86.5912 58.1659 83.5794 58.1659 79.5371ZM77.0522 11.4134C75.4684 11.4134 73.9243 12.0079 72.4197 13.1968V48.2692L79.4278 45.1781H83.11V20.2112C83.11 14.346 81.0908 11.4134 77.0522 11.4134Z" fill="#333333"/>
<path d="M32.071 43.038V22.1135C32.071 19.1808 31.7542 17.0805 31.1207 15.8123C30.4872 14.5442 29.1806 13.9101 27.2009 13.9101V10.2245L51.5511 0L53.4516 3.80447C51.7095 3.80447 50.0466 4.83484 48.4628 6.89559C47.0374 8.87709 46.3247 11.889 46.3247 15.9312V43.038H52.2638V45.8914L46.3247 48.8636V74.0682C46.3247 78.903 47.9481 81.6375 51.1948 82.2716V84.8872L39.1979 91.6639C37.4557 90.9505 35.8324 89.8013 34.3278 88.2161C32.8233 86.5516 32.071 85.006 32.071 83.5794V48.8636H21.3807V73.3549C21.3807 76.2875 21.6974 78.3879 22.3309 79.656C22.9644 80.9242 24.271 81.5583 26.2507 81.5583V85.2438L1.9005 95.4683L0 91.6639C1.74213 91.6639 3.40507 90.6335 4.98882 88.5727C6.4142 86.5912 7.12688 83.5794 7.12688 79.5371V17.7145C7.12688 12.8797 5.50354 10.1452 2.25685 9.51116V6.89559L14.2538 0.118888C15.9959 0.832226 17.6192 2.02112 19.1238 3.68558C20.6284 5.27077 21.3807 6.77671 21.3807 8.20338V46.248L27.3197 43.038H32.071Z" fill="#333333"/>
<path d="M349.415 209.616V118.017C349.415 117.272 355.473 114.666 367.59 110.198C379.707 105.623 386.669 103.336 388.476 103.336C390.283 103.336 392.994 105.517 396.607 109.878C400.328 114.24 402.188 118.177 402.188 121.687V163.497H410V167.327L402.188 171.317V202.275C402.188 208.127 404.739 211.584 409.841 212.648V216.159L392.462 225.893C390.124 224.936 387.945 223.393 385.925 221.266C383.906 219.031 382.896 216.957 382.896 215.042V171.317H368.547V201.318C368.547 205.254 368.972 208.074 369.822 209.776C370.673 211.478 372.426 212.329 375.084 212.329V217.276L342.399 231L339.849 225.893C342.187 225.893 344.419 224.51 346.545 221.744C348.458 219.085 349.415 215.042 349.415 209.616ZM374.765 118.177C372.639 118.177 370.566 118.975 368.547 120.57V167.647L377.954 163.497H382.896V129.986C382.896 122.113 380.186 118.177 374.765 118.177Z" fill="#F64D45"/>
<path d="M280.907 207.701V129.028C280.907 125.517 280.163 122.485 278.675 119.932C277.187 117.379 275.327 116.102 273.095 116.102V112.591C273.839 112.485 279.632 109.24 290.473 102.857C291.217 103.07 292.121 103.389 293.184 103.814C294.247 104.134 295.628 105.144 297.329 106.846C299.136 108.549 300.04 110.517 300.04 112.751C300.677 112.432 302.484 111.421 305.46 109.719C313.326 105.251 318.003 103.017 319.491 103.017C322.892 103.017 326.081 105.251 329.057 109.719C332.033 114.187 333.521 118.283 333.521 122.007V202.276C333.521 208.127 336.125 211.584 341.333 212.648V216.159L323.955 225.893C321.616 224.936 319.437 223.393 317.418 221.266C315.398 219.031 314.389 216.957 314.389 215.042V136.848C314.389 130.145 313.379 125.571 311.359 123.124C309.446 120.677 305.673 119.453 300.04 119.453V201.318C300.04 205.574 300.571 208.499 301.634 210.095C302.697 211.584 304.344 212.329 306.576 212.329V217.276L273.892 231L271.341 225.893C273.467 225.893 275.54 224.617 277.559 222.063C279.791 219.085 280.907 214.297 280.907 207.701Z" fill="#F64D45"/>
<path d="M212.244 209.616V118.017C212.244 117.272 218.303 114.666 230.42 110.198C242.537 105.623 249.499 103.336 251.306 103.336C253.113 103.336 255.823 105.517 259.437 109.878C263.157 114.24 265.017 118.177 265.017 121.687V163.497H272.83V167.327L265.017 171.317V202.275C265.017 208.127 267.568 211.584 272.67 212.648V216.159L255.292 225.893C252.953 224.936 250.774 223.393 248.755 221.266C246.735 219.031 245.726 216.957 245.726 215.042V171.317H231.377V201.318C231.377 205.254 231.802 208.074 232.652 209.776C233.502 211.478 235.256 212.329 237.913 212.329V217.276L205.229 231L202.678 225.893C205.017 225.893 207.249 224.51 209.374 221.744C211.288 219.085 212.244 215.042 212.244 209.616ZM237.595 118.177C235.469 118.177 233.396 118.975 231.377 120.57V167.647L240.783 163.497H245.726V129.986C245.726 122.113 243.015 118.177 237.595 118.177Z" fill="#F64D45"/>
<path d="M164.271 114.187C176.281 107.059 182.712 103.495 183.562 103.495C184.519 103.495 186.06 104.346 188.186 106.049C190.312 107.644 192.437 109.932 194.563 112.911C196.689 115.783 197.752 118.602 197.752 121.368V148.178C197.752 150.625 193.394 153.71 184.678 157.433C186.91 158.072 189.674 160.465 192.969 164.615C196.264 168.657 197.911 172.328 197.911 175.626V211.052C197.911 211.904 192.065 214.616 180.374 219.191C168.788 223.659 161.667 225.893 159.009 225.893C156.458 225.893 153.482 223.606 150.081 219.031C146.786 214.457 145.138 208.978 145.138 202.595V125.996C145.138 120.251 142.959 116.9 138.602 115.943V112.432L154.705 103.336C157.043 104.293 159.222 105.889 161.241 108.123C163.261 110.251 164.271 112.272 164.271 114.187ZM172.402 211.212C174.421 211.212 176.494 210.361 178.62 208.659V183.924C178.62 176.051 175.909 172.115 170.489 172.115C168.363 172.115 166.29 172.913 164.271 174.509V199.403C164.271 207.276 166.981 211.212 172.402 211.212ZM178.62 130.145C178.62 127.273 177.982 124.826 176.707 122.804C175.537 120.677 173.784 119.613 171.445 119.613C169.213 119.613 166.822 121.209 164.271 124.4V157.433C173.837 154.774 178.62 149.029 178.62 140.199V130.145Z" fill="#F64D45"/>
<path d="M101.67 118.655C99.7567 118.655 97.6841 119.453 95.452 121.049V172.913C98.2155 172.913 101.298 172.062 104.699 170.359C108.101 168.551 109.801 166.689 109.801 164.774V130.464C109.801 122.592 107.091 118.655 101.67 118.655ZM76.3198 209.616V126.954C76.3198 120.464 74.1408 116.794 69.7829 115.943V112.432L85.8859 103.336C88.0117 104.187 90.1375 105.729 92.2633 107.964C94.3891 110.198 95.452 112.219 95.452 114.028C107.144 106.9 113.84 103.336 115.541 103.336C117.241 103.336 119.899 105.517 123.513 109.878C127.233 114.24 129.093 118.177 129.093 121.687V166.529C129.093 167.381 123.3 170.093 111.714 174.668C116.604 191.158 122.343 202.275 128.933 208.02C131.909 210.467 134.939 211.691 138.021 211.691V216.478C128.136 222.755 121.865 225.893 119.208 225.893C115.7 225.893 111.236 219.297 105.815 206.105C100.501 192.913 97.6309 184.19 97.2058 179.934L95.452 180.413V201.318C95.452 205.254 95.8771 208.074 96.7275 209.776C97.5778 211.478 99.3316 212.329 101.989 212.329V217.276L69.3046 231L66.7537 225.893C69.092 225.893 71.3241 224.51 73.4499 221.744C75.3632 219.085 76.3198 215.042 76.3198 209.616Z" fill="#F64D45"/>
<path d="M41.2937 209.297V132.539C41.2937 128.603 40.8685 125.783 40.0182 124.081C39.1679 122.379 37.4141 121.528 34.7569 121.528V116.581L67.4411 102.857L69.992 107.964C67.6536 107.964 65.4215 109.347 63.2957 112.113C61.3825 114.772 60.4259 118.815 60.4259 124.241V199.722C60.4259 203.233 61.1699 206.265 62.658 208.818C64.1461 211.372 66.0061 212.648 68.2382 212.648V216.159C67.4942 216.265 61.7014 219.51 50.8598 225.893C50.1158 225.681 49.2123 225.415 48.1494 225.096C47.0865 224.67 45.6516 223.606 43.8447 221.904C42.144 220.202 41.2937 218.234 41.2937 215.999C40.656 216.319 38.849 217.329 35.8729 219.031C28.0074 223.5 23.3307 225.734 21.8426 225.734C18.4413 225.734 15.2526 223.553 12.2765 219.191C9.30038 214.723 7.81232 210.574 7.81232 206.744V126.475C7.81232 120.624 5.20821 117.166 0 116.102V112.591L17.3784 102.857C19.7168 103.814 21.8958 105.41 23.9153 107.644C25.9348 109.772 26.9445 111.793 26.9445 113.708V191.903C26.9445 198.605 27.9011 203.18 29.8144 205.627C31.8339 208.074 35.6603 209.297 41.2937 209.297Z" fill="#F64D45"/>
</svg>
